<svg width="24" height="24" viewBox="0 0 24 24" fill="none" xmlns="http://www.w3.org/2000/svg">
<path d="M0.5 0.5H23.5V23.5H0.5V0.5Z" stroke="black"/>
<path d="M13.684 13.272C13.572 13.3467 13.3527 13.4447 13.026 13.566C12.7087 13.678 12.3353 13.734 11.906 13.734C11.4673 13.734 11.052 13.664 10.66 13.524C10.2773 13.384 9.94133 13.1693 9.652 12.88C9.36267 12.5813 9.134 12.2127 8.966 11.774C8.798 11.3353 8.714 10.8127 8.714 10.206C8.714 9.674 8.79333 9.18867 8.952 8.75C9.11067 8.302 9.33933 7.91933 9.638 7.602C9.946 7.27533 10.3193 7.02333 10.758 6.846C11.1967 6.65933 11.6913 6.566 12.242 6.566C12.8487 6.566 13.376 6.61267 13.824 6.706C14.2813 6.79 14.664 6.86933 14.972 6.944V13.44C14.972 14.56 14.6827 15.372 14.104 15.876C13.5253 16.38 12.648 16.632 11.472 16.632C11.0147 16.632 10.5807 16.5947 10.17 16.52C9.76867 16.4453 9.41867 16.3567 9.12 16.254L9.358 15.12C9.61933 15.2227 9.93667 15.3113 10.31 15.386C10.6927 15.47 11.0893 15.512 11.5 15.512C12.2747 15.512 12.83 15.358 13.166 15.05C13.5113 14.742 13.684 14.252 13.684 13.58V13.272ZM13.67 7.868C13.5393 7.83067 13.362 7.798 13.138 7.77C12.9233 7.73267 12.6293 7.714 12.256 7.714C11.556 7.714 11.0147 7.94267 10.632 8.4C10.2587 8.85733 10.072 9.464 10.072 10.22C10.072 10.64 10.1233 10.9993 10.226 11.298C10.338 11.5967 10.4827 11.844 10.66 12.04C10.8467 12.236 11.0567 12.3807 11.29 12.474C11.5327 12.5673 11.78 12.614 12.032 12.614C12.3773 12.614 12.6947 12.5673 12.984 12.474C13.2733 12.3713 13.502 12.2547 13.67 12.124V7.868Z" fill="black"/>
</svg>
