<svg width="28" height="12" viewBox="0 0 28 12" fill="none" xmlns="http://www.w3.org/2000/svg">
<path d="M0.104 9V1.14H2.444C2.98 1.14 3.452 1.204 3.86 1.332C4.276 1.452 4.6 1.652 4.832 1.932C5.072 2.212 5.192 2.588 5.192 3.06C5.192 3.444 5.08 3.796 4.856 4.116C4.632 4.436 4.288 4.656 3.824 4.776V4.824C4.392 4.912 4.832 5.112 5.144 5.424C5.456 5.736 5.612 6.16 5.612 6.696C5.612 7.216 5.484 7.648 5.228 7.992C4.98 8.328 4.632 8.58 4.184 8.748C3.736 8.916 3.22 9 2.636 9H0.104ZM1.304 4.404H2.3C2.908 4.404 3.344 4.304 3.608 4.104C3.88 3.896 4.016 3.592 4.016 3.192C4.016 2.8 3.876 2.524 3.596 2.364C3.316 2.204 2.896 2.124 2.336 2.124H1.304V4.404ZM1.304 8.016H2.492C3.116 8.016 3.596 7.908 3.932 7.692C4.268 7.468 4.436 7.112 4.436 6.624C4.436 6.176 4.268 5.856 3.932 5.664C3.604 5.464 3.124 5.364 2.492 5.364H1.304V8.016ZM11.0313 9.144C10.3833 9.144 9.88731 8.956 9.54331 8.58C9.19931 8.196 9.02731 7.652 9.02731 6.948V1.452H7.07131V0.491999H10.2153V7.02C10.2153 7.428 10.3193 7.724 10.5273 7.908C10.7353 8.084 10.9953 8.172 11.3073 8.172C11.4673 8.172 11.6313 8.152 11.7993 8.112C11.9753 8.072 12.1673 8.008 12.3753 7.92L12.6633 8.808C12.3833 8.904 12.1233 8.984 11.8833 9.048C11.6513 9.112 11.3673 9.144 11.0313 9.144ZM16.9906 9.144C16.4786 9.144 15.9986 9.024 15.5506 8.784C15.1106 8.544 14.7506 8.196 14.4706 7.74C14.1986 7.276 14.0626 6.72 14.0626 6.072C14.0626 5.424 14.1986 4.872 14.4706 4.416C14.7506 3.952 15.1106 3.6 15.5506 3.36C15.9986 3.112 16.4786 2.988 16.9906 2.988C17.5026 2.988 17.9786 3.112 18.4186 3.36C18.8666 3.6 19.2266 3.952 19.4986 4.416C19.7786 4.872 19.9186 5.424 19.9186 6.072C19.9186 6.72 19.7786 7.276 19.4986 7.74C19.2266 8.196 18.8666 8.544 18.4186 8.784C17.9786 9.024 17.5026 9.144 16.9906 9.144ZM16.9906 8.172C17.3346 8.172 17.6346 8.084 17.8906 7.908C18.1466 7.732 18.3426 7.488 18.4786 7.176C18.6226 6.864 18.6946 6.496 18.6946 6.072C18.6946 5.656 18.6226 5.292 18.4786 4.98C18.3426 4.66 18.1466 4.412 17.8906 4.236C17.6346 4.06 17.3346 3.972 16.9906 3.972C16.6466 3.972 16.3466 4.06 16.0906 4.236C15.8346 4.412 15.6346 4.66 15.4906 4.98C15.3546 5.292 15.2866 5.656 15.2866 6.072C15.2866 6.496 15.3546 6.864 15.4906 7.176C15.6346 7.488 15.8346 7.732 16.0906 7.908C16.3466 8.084 16.6466 8.172 16.9906 8.172ZM24.0779 11.652C23.5259 11.652 23.0459 11.588 22.6379 11.46C22.2379 11.34 21.9299 11.16 21.7139 10.92C21.4979 10.688 21.3899 10.4 21.3899 10.056C21.3899 9.816 21.4699 9.584 21.6299 9.36C21.7899 9.144 22.0259 8.952 22.3379 8.784V8.736C22.1859 8.64 22.0459 8.516 21.9179 8.364C21.7979 8.212 21.7379 8.012 21.7379 7.764C21.7379 7.572 21.7979 7.38 21.9179 7.188C22.0459 6.988 22.2179 6.812 22.4339 6.66V6.612C22.2339 6.46 22.0619 6.256 21.9179 6C21.7739 5.744 21.7019 5.444 21.7019 5.1C21.7019 4.66 21.8099 4.284 22.0259 3.972C22.2499 3.66 22.5379 3.42 22.8899 3.252C23.2499 3.076 23.6419 2.988 24.0659 2.988C24.4019 2.988 24.6979 3.036 24.9539 3.132H27.3659V4.068H25.9379C26.0579 4.196 26.1579 4.356 26.2379 4.548C26.3259 4.732 26.3699 4.928 26.3699 5.136C26.3699 5.568 26.2659 5.932 26.0579 6.228C25.8579 6.524 25.5819 6.752 25.2299 6.912C24.8859 7.064 24.4979 7.14 24.0659 7.14C23.9219 7.14 23.7659 7.124 23.5979 7.092C23.4379 7.06 23.2779 7.012 23.1179 6.948C22.9899 7.036 22.8899 7.128 22.8179 7.224C22.7459 7.32 22.7099 7.432 22.7099 7.56C22.7099 7.768 22.8099 7.924 23.0099 8.028C23.2099 8.124 23.4979 8.172 23.8739 8.172H25.1219C25.8819 8.172 26.4499 8.28 26.8259 8.496C27.2099 8.712 27.4019 9.072 27.4019 9.576C27.4019 9.952 27.2659 10.296 26.9939 10.608C26.7219 10.928 26.3379 11.18 25.8419 11.364C25.3459 11.556 24.7579 11.652 24.0779 11.652ZM24.0659 6.372C24.2899 6.372 24.4939 6.324 24.6779 6.228C24.8619 6.124 25.0099 5.976 25.1219 5.784C25.2339 5.592 25.2899 5.364 25.2899 5.1C25.2899 4.844 25.2339 4.624 25.1219 4.44C25.0099 4.248 24.8619 4.1 24.6779 3.996C24.4939 3.884 24.2899 3.828 24.0659 3.828C23.8419 3.828 23.6339 3.884 23.4419 3.996C23.2579 4.1 23.1099 4.248 22.9979 4.44C22.8859 4.624 22.8299 4.844 22.8299 5.1C22.8299 5.364 22.8859 5.592 22.9979 5.784C23.1099 5.976 23.2579 6.124 23.4419 6.228C23.6339 6.324 23.8419 6.372 24.0659 6.372ZM24.1979 10.824C24.6219 10.824 24.9859 10.772 25.2899 10.668C25.5939 10.572 25.8259 10.444 25.9859 10.284C26.1539 10.132 26.2379 9.964 26.2379 9.78C26.2379 9.516 26.1339 9.34 25.9259 9.252C25.7179 9.172 25.4059 9.132 24.9899 9.132H23.9459C23.7619 9.132 23.5979 9.124 23.4539 9.108C23.3099 9.092 23.1779 9.068 23.0579 9.036C22.8099 9.172 22.6339 9.312 22.5299 9.456C22.4339 9.608 22.3859 9.76 22.3859 9.912C22.3859 10.192 22.5419 10.412 22.8539 10.572C23.1659 10.74 23.6139 10.824 24.1979 10.824Z" fill="black"/>
</svg>
