<svg width="244" height="60" viewBox="0 0 244 60" fill="none" xmlns="http://www.w3.org/2000/svg">
<path d="M19.296 2.2C21.472 2.2 23.5413 2.86133 25.504 4.184C27.4667 5.464 29.0453 7.21333 30.24 9.432C31.4347 11.608 32.032 13.9973 32.032 16.6C32.032 19.16 31.4347 21.5493 30.24 23.768C29.0453 25.9867 27.4667 27.7573 25.504 29.08C23.5413 30.36 21.472 31 19.296 31H8.16V43.096C8.16 44.248 7.81867 45.1867 7.136 45.912C6.45333 46.6373 5.55733 47 4.448 47C3.38133 47 2.50667 46.6373 1.824 45.912C1.14133 45.144 0.8 44.2053 0.8 43.096V6.104C0.8 4.99466 1.16267 4.07733 1.888 3.352C2.656 2.584 3.59467 2.2 4.704 2.2H19.296ZM19.296 23.704C20.1067 23.704 20.896 23.3627 21.664 22.68C22.4747 21.9973 23.1147 21.1227 23.584 20.056C24.096 18.9467 24.352 17.7947 24.352 16.6C24.352 15.4053 24.096 14.2747 23.584 13.208C23.1147 12.0987 22.4747 11.224 21.664 10.584C20.896 9.90133 20.1067 9.56 19.296 9.56H8.16V23.704H19.296ZM56.5145 12.12C57.7945 12.12 58.8612 12.4827 59.7145 13.208C60.6105 13.9333 61.0585 14.7867 61.0585 15.768C61.0585 17.0907 60.7172 18.0933 60.0345 18.776C59.3518 19.416 58.5412 19.736 57.6025 19.736C56.9625 19.736 56.2372 19.5867 55.4265 19.288C55.2985 19.2453 54.9998 19.16 54.5305 19.032C54.1038 18.904 53.6345 18.84 53.1225 18.84C52.0132 18.84 50.9465 19.1813 49.9225 19.864C48.8985 20.5467 48.0452 21.592 47.3625 23C46.7225 24.3653 46.4025 26.008 46.4025 27.928V43.096C46.4025 44.2053 46.0398 45.144 45.3145 45.912C44.5892 46.6373 43.6718 47 42.5625 47C41.4532 47 40.5358 46.6373 39.8105 45.912C39.0852 45.144 38.7225 44.2053 38.7225 43.096V16.664C38.7225 15.5547 39.0852 14.6373 39.8105 13.912C40.5358 13.144 41.4532 12.76 42.5625 12.76C43.6718 12.76 44.5892 13.144 45.3145 13.912C46.0398 14.6373 46.4025 15.5547 46.4025 16.664V17.496C47.3838 15.7467 48.7918 14.424 50.6265 13.528C52.4612 12.5893 54.4238 12.12 56.5145 12.12ZM97.931 29.912C97.931 33.3253 97.163 36.3973 95.627 39.128C94.091 41.816 91.979 43.9067 89.291 45.4C86.6457 46.8933 83.723 47.64 80.523 47.64C77.2803 47.64 74.3363 46.8933 71.691 45.4C69.0457 43.9067 66.955 41.816 65.419 39.128C63.883 36.3973 63.115 33.3253 63.115 29.912C63.115 26.4987 63.883 23.448 65.419 20.76C66.955 18.0293 69.0457 15.9173 71.691 14.424C74.3363 12.888 77.2803 12.12 80.523 12.12C83.723 12.12 86.6457 12.888 89.291 14.424C91.979 15.9173 94.091 18.0293 95.627 20.76C97.163 23.448 97.931 26.4987 97.931 29.912ZM90.251 29.912C90.251 27.8213 89.803 25.9653 88.907 24.344C88.0537 22.68 86.8803 21.4 85.387 20.504C83.9363 19.608 82.315 19.16 80.523 19.16C78.731 19.16 77.0883 19.608 75.595 20.504C74.1443 21.4 72.971 22.68 72.075 24.344C71.2217 25.9653 70.795 27.8213 70.795 29.912C70.795 32.0027 71.2217 33.8587 72.075 35.48C72.971 37.1013 74.1443 38.36 75.595 39.256C77.0883 40.152 78.731 40.6 80.523 40.6C82.315 40.6 83.9363 40.152 85.387 39.256C86.8803 38.36 88.0537 37.1013 88.907 35.48C89.803 33.8587 90.251 32.0027 90.251 29.912ZM102.492 59.544C101.468 59.544 100.614 59.2027 99.9315 58.52C99.2488 57.8373 98.9075 56.984 98.9075 55.96V55.256C98.9075 53.5493 99.9955 52.376 102.172 51.736C103.537 51.3093 104.39 50.584 104.732 49.56C105.116 48.5787 105.308 47.192 105.308 45.4V16.664C105.308 15.5547 105.67 14.6373 106.396 13.912C107.121 13.144 108.038 12.76 109.148 12.76C110.257 12.76 111.174 13.144 111.9 13.912C112.625 14.6373 112.988 15.5547 112.988 16.664V47.64C112.988 50.0293 112.518 52.12 111.58 53.912C110.684 55.704 109.425 57.0907 107.804 58.072C106.225 59.0533 104.454 59.544 102.492 59.544ZM109.02 8.6C107.569 8.6 106.545 8.36533 105.948 7.896C105.35 7.42666 105.052 6.59466 105.052 5.4V4.184C105.052 2.98933 105.372 2.15733 106.012 1.688C106.652 1.21866 107.676 0.983997 109.084 0.983997C110.577 0.983997 111.622 1.21866 112.22 1.688C112.817 2.15733 113.116 2.98933 113.116 4.184V5.4C113.116 6.63733 112.796 7.49066 112.156 7.96C111.558 8.38667 110.513 8.6 109.02 8.6ZM152.693 29.08C152.65 30.104 152.245 30.936 151.477 31.576C150.709 32.216 149.813 32.536 148.789 32.536H127.669C128.181 35.0533 129.354 37.0373 131.189 38.488C133.023 39.896 135.093 40.6 137.397 40.6C139.146 40.6 140.511 40.4507 141.493 40.152C142.474 39.8107 143.242 39.4693 143.797 39.128C144.394 38.744 144.799 38.488 145.013 38.36C145.781 37.976 146.506 37.784 147.189 37.784C148.085 37.784 148.853 38.104 149.493 38.744C150.133 39.384 150.453 40.1307 150.453 40.984C150.453 42.136 149.855 43.1813 148.661 44.12C147.466 45.1013 145.866 45.9333 143.861 46.616C141.855 47.2987 139.829 47.64 137.781 47.64C134.197 47.64 131.061 46.8933 128.373 45.4C125.727 43.9067 123.679 41.8587 122.229 39.256C120.778 36.6107 120.053 33.6453 120.053 30.36C120.053 26.6907 120.821 23.4693 122.357 20.696C123.893 17.9227 125.919 15.8107 128.437 14.36C130.954 12.8667 133.642 12.12 136.501 12.12C139.317 12.12 141.962 12.888 144.437 14.424C146.954 15.96 148.959 18.0293 150.453 20.632C151.946 23.2347 152.693 26.0507 152.693 29.08ZM136.501 19.16C131.551 19.16 128.629 21.4853 127.733 26.136H144.501V25.688C144.33 23.896 143.455 22.36 141.877 21.08C140.298 19.8 138.506 19.16 136.501 19.16ZM174.01 12.12C177.636 12.12 180.559 12.696 182.778 13.848C184.996 14.9573 186.106 16.4507 186.106 18.328C186.106 19.2667 185.828 20.0987 185.274 20.824C184.719 21.5067 183.994 21.848 183.098 21.848C182.415 21.848 181.86 21.7627 181.434 21.592C181.007 21.3787 180.58 21.1227 180.154 20.824C179.77 20.4827 179.386 20.2053 179.002 19.992C178.575 19.7787 177.935 19.5867 177.082 19.416C176.271 19.2453 175.61 19.16 175.098 19.16C171.898 19.16 169.38 20.1627 167.546 22.168C165.754 24.1307 164.858 26.712 164.858 29.912C164.858 32.984 165.775 35.544 167.61 37.592C169.444 39.5973 171.791 40.6 174.65 40.6C176.74 40.6 178.298 40.344 179.322 39.832C179.578 39.704 179.919 39.4907 180.346 39.192C180.815 38.8507 181.242 38.5947 181.626 38.424C182.01 38.2533 182.479 38.168 183.034 38.168C184.1 38.168 184.932 38.5093 185.53 39.192C186.17 39.8747 186.49 40.7493 186.49 41.816C186.49 42.84 185.892 43.8 184.698 44.696C183.503 45.592 181.924 46.3173 179.962 46.872C177.999 47.384 175.908 47.64 173.69 47.64C170.404 47.64 167.503 46.872 164.986 45.336C162.511 43.8 160.591 41.688 159.226 39C157.86 36.2693 157.178 33.24 157.178 29.912C157.178 26.456 157.882 23.384 159.29 20.696C160.74 18.008 162.746 15.9173 165.306 14.424C167.866 12.888 170.767 12.12 174.01 12.12ZM208.547 39.768C209.144 39.768 209.678 40.0667 210.147 40.664C210.659 41.2187 210.915 41.9653 210.915 42.904C210.915 44.056 210.275 45.0373 208.995 45.848C207.758 46.616 206.35 47 204.771 47C202.126 47 199.886 46.4453 198.051 45.336C196.259 44.184 195.363 41.7733 195.363 38.104V20.44H192.419C191.395 20.44 190.542 20.0987 189.859 19.416C189.176 18.7333 188.835 17.88 188.835 16.856C188.835 15.8747 189.176 15.064 189.859 14.424C190.542 13.7413 191.395 13.4 192.419 13.4H195.363V9.304C195.363 8.19467 195.726 7.27733 196.451 6.552C197.219 5.784 198.158 5.4 199.267 5.4C200.334 5.4 201.23 5.784 201.955 6.552C202.68 7.27733 203.043 8.19467 203.043 9.304V13.4H207.587C208.611 13.4 209.464 13.7413 210.147 14.424C210.83 15.1067 211.171 15.96 211.171 16.984C211.171 17.9653 210.83 18.7973 210.147 19.48C209.464 20.12 208.611 20.44 207.587 20.44H203.043V37.784C203.043 38.68 203.278 39.3413 203.747 39.768C204.216 40.152 204.856 40.344 205.667 40.344C206.008 40.344 206.478 40.2587 207.075 40.088C207.587 39.8747 208.078 39.768 208.547 39.768ZM217.489 41.688C217.105 41.176 216.913 40.536 216.913 39.768C216.913 38.6587 217.467 37.72 218.577 36.952C219.174 36.568 219.793 36.376 220.433 36.376C221.329 36.376 222.182 36.7813 222.993 37.592C224.273 38.9147 225.595 39.896 226.961 40.536C228.369 41.176 230.054 41.496 232.017 41.496C235.345 41.368 237.009 40.1093 237.009 37.72C237.009 36.4827 236.433 35.544 235.281 34.904C234.171 34.264 232.422 33.624 230.033 32.984C227.558 32.3013 225.531 31.6187 223.953 30.936C222.417 30.2533 221.073 29.2293 219.921 27.864C218.811 26.456 218.257 24.5787 218.257 22.232C218.257 20.184 218.833 18.4133 219.985 16.92C221.179 15.384 222.715 14.2107 224.593 13.4C226.513 12.5467 228.539 12.12 230.673 12.12C232.849 12.12 235.025 12.5253 237.201 13.336C239.377 14.1467 241.083 15.3413 242.321 16.92C242.875 17.6027 243.153 18.3707 243.153 19.224C243.153 20.2053 242.747 21.016 241.937 21.656C241.339 22.1253 240.657 22.36 239.889 22.36C238.95 22.36 238.182 22.0613 237.585 21.464C236.817 20.5253 235.814 19.7787 234.577 19.224C233.382 18.6693 232.017 18.392 230.481 18.392C227.238 18.392 225.617 19.5653 225.617 21.912C225.617 22.8507 225.915 23.6187 226.513 24.216C227.11 24.7707 227.857 25.2187 228.753 25.56C229.691 25.8587 230.993 26.2427 232.657 26.712C234.961 27.352 236.881 28.0133 238.417 28.696C239.953 29.3787 241.254 30.424 242.321 31.832C243.387 33.24 243.921 35.096 243.921 37.4C243.921 39.4907 243.302 41.3253 242.065 42.904C240.827 44.44 239.227 45.6133 237.265 46.424C235.345 47.2347 233.361 47.64 231.312 47.64C228.497 47.64 225.873 47.1707 223.441 46.232C221.009 45.2933 219.025 43.7787 217.489 41.688Z" fill="white"/>
</svg>
